<svg width="3292" height="1080" viewBox="0 0 3292 1080" fill="none" xmlns="http://www.w3.org/2000/svg">
<rect x="10" y="10" width="250" height="250" fill="white"/>
<rect x="10" y="280" width="250" height="250" fill="white"/>
<rect x="280" y="10" width="250" height="250" fill="#29BCAF"/>
<rect x="280" y="280" width="250" height="250" fill="white"/>
<rect x="280" y="550" width="250" height="250" fill="white"/>
<rect x="550" y="10" width="250" height="250" fill="#29BCAF"/>
<rect x="550" y="280" width="250" height="250" fill="#29BCAF"/>
<rect x="550" y="550" width="250" height="250" fill="#F05430"/>
<rect x="550" y="820" width="250" height="250" fill="#F05430"/>
<rect x="820" y="10" width="250" height="250" fill="#29BCAF"/>
<rect x="820" y="550" width="250" height="250" fill="#F05430"/>
<rect x="820" y="820" width="250" height="250" fill="#F05430"/>
<rect x="1170" y="10" width="10" height="1060" fill="white"/>
<path d="M1298.31 198.045H1369.84C1384 198.045 1394.54 198.655 1401.46 199.876C1408.46 201.015 1414.68 203.457 1420.14 207.2C1425.67 210.944 1430.27 215.949 1433.93 222.215C1437.59 228.4 1439.42 235.358 1439.42 243.089C1439.42 251.471 1437.15 259.161 1432.59 266.16C1428.11 273.159 1422.01 278.408 1414.28 281.907C1425.18 285.081 1433.56 290.493 1439.42 298.143C1445.28 305.792 1448.21 314.785 1448.21 325.12C1448.21 333.258 1446.3 341.193 1442.48 348.924C1438.73 356.574 1433.56 362.718 1426.97 367.356C1420.46 371.914 1412.41 374.721 1402.8 375.779C1396.78 376.43 1382.25 376.837 1359.22 377H1298.31V198.045ZM1334.44 227.83V269.212H1358.12C1372.2 269.212 1380.95 269.008 1384.37 268.602C1390.56 267.869 1395.4 265.753 1398.9 262.254C1402.48 258.673 1404.27 253.994 1404.27 248.216C1404.27 242.682 1402.72 238.206 1399.63 234.788C1396.62 231.289 1392.1 229.173 1386.08 228.44C1382.5 228.034 1372.2 227.83 1355.2 227.83H1334.44ZM1334.44 298.997V346.849H1367.89C1380.91 346.849 1389.17 346.482 1392.67 345.75C1398.04 344.773 1402.4 342.413 1405.73 338.67C1409.15 334.845 1410.86 329.759 1410.86 323.411C1410.86 318.04 1409.56 313.483 1406.95 309.739C1404.35 305.996 1400.56 303.27 1395.6 301.561C1390.72 299.852 1380.06 298.997 1363.62 298.997H1334.44ZM1640.23 377H1600.92L1585.3 336.351H1513.76L1498.99 377H1460.66L1530.37 198.045H1568.57L1640.23 377ZM1573.7 306.199L1549.04 239.793L1524.87 306.199H1573.7ZM1659.88 377V198.045H1695.04L1768.28 317.552V198.045H1801.85V377H1765.6L1693.45 260.301V377H1659.88ZM1840.67 377V198.045H1876.8V277.513L1949.8 198.045H1998.38L1931 267.747L2002.05 377H1955.29L1906.1 293.016L1876.8 322.923V377H1840.67ZM2019.75 377V198.045H2055.88V377H2019.75ZM2090.79 377V198.045H2125.95L2199.19 317.552V198.045H2232.76V377H2196.5L2124.36 260.301V377H2090.79ZM2354.34 311.204V281.053H2432.22V352.342C2424.65 359.666 2413.67 366.136 2399.26 371.751C2384.94 377.285 2370.41 380.052 2355.68 380.052C2336.97 380.052 2320.65 376.146 2306.73 368.333C2292.82 360.439 2282.36 349.209 2275.36 334.642C2268.36 319.993 2264.86 304.083 2264.86 286.912C2264.86 268.276 2268.77 251.715 2276.58 237.229C2284.39 222.744 2295.83 211.635 2310.88 203.904C2322.36 197.964 2336.64 194.993 2353.73 194.993C2375.95 194.993 2393.28 199.673 2405.73 209.031C2418.26 218.309 2426.32 231.167 2429.9 247.605L2394.01 254.319C2391.49 245.53 2386.73 238.613 2379.73 233.567C2372.81 228.44 2364.15 225.877 2353.73 225.877C2337.94 225.877 2325.37 230.882 2316.01 240.892C2306.73 250.901 2302.09 265.753 2302.09 285.447C2302.09 306.688 2306.81 322.638 2316.25 333.299C2325.69 343.878 2338.06 349.168 2353.36 349.168C2360.93 349.168 2368.5 347.703 2376.07 344.773C2383.72 341.762 2390.27 338.141 2395.72 333.909V311.204H2354.34Z" fill="white"/>
<path d="M1338.47 627V478.318H1285.37V448.045H1427.58V478.318H1374.6V627H1338.47ZM1451.02 627V448.045H1583.71V478.318H1487.15V517.991H1577V548.143H1487.15V596.849H1587.13V627H1451.02ZM1732.27 561.204L1767.3 572.312C1761.93 591.844 1752.98 606.37 1740.45 615.892C1728 625.332 1712.17 630.052 1692.96 630.052C1669.2 630.052 1649.67 621.954 1634.37 605.76C1619.07 589.484 1611.42 567.267 1611.42 539.109C1611.42 509.324 1619.11 486.212 1634.49 469.773C1649.87 453.253 1670.1 444.993 1695.16 444.993C1717.05 444.993 1734.83 451.463 1748.51 464.402C1756.64 472.052 1762.75 483.038 1766.82 497.361L1731.05 505.906C1728.93 496.629 1724.5 489.305 1717.74 483.934C1711.07 478.562 1702.93 475.877 1693.33 475.877C1680.07 475.877 1669.28 480.638 1660.98 490.159C1652.76 499.681 1648.65 515.102 1648.65 536.424C1648.65 559.048 1652.72 575.161 1660.86 584.764C1669 594.367 1679.58 599.168 1692.6 599.168C1702.2 599.168 1710.46 596.116 1717.38 590.013C1724.3 583.909 1729.26 574.306 1732.27 561.204ZM1798.55 627V448.045H1834.69V518.479H1905.49V448.045H1941.62V627H1905.49V548.753H1834.69V627H1798.55ZM1979.46 627V448.045H2014.62L2087.86 567.552V448.045H2121.43V627H2085.18L2013.03 510.301V627H1979.46ZM2152.44 538.621C2152.44 520.392 2155.16 505.092 2160.62 492.723C2164.68 483.608 2170.22 475.429 2177.22 468.187C2184.3 460.944 2192.03 455.573 2200.41 452.073C2211.56 447.353 2224.42 444.993 2238.98 444.993C2265.35 444.993 2286.43 453.172 2302.22 469.529C2318.09 485.887 2326.02 508.632 2326.02 537.767C2326.02 566.657 2318.17 589.28 2302.46 605.638C2286.75 621.914 2265.76 630.052 2239.47 630.052C2212.86 630.052 2191.7 621.954 2176 605.76C2160.29 589.484 2152.44 567.104 2152.44 538.621ZM2189.67 537.4C2189.67 557.664 2194.35 573.045 2203.71 583.543C2213.06 593.96 2224.95 599.168 2239.35 599.168C2253.75 599.168 2265.56 594 2274.75 583.665C2284.03 573.248 2288.67 557.664 2288.67 536.912C2288.67 516.404 2284.15 501.105 2275.12 491.014C2266.17 480.923 2254.24 475.877 2239.35 475.877C2224.46 475.877 2212.45 481.004 2203.34 491.258C2194.23 501.43 2189.67 516.811 2189.67 537.4ZM2355.32 627V449.51H2391.45V596.849H2481.29V627H2355.32ZM2499.85 538.621C2499.85 520.392 2502.57 505.092 2508.03 492.723C2512.1 483.608 2517.63 475.429 2524.63 468.187C2531.71 460.944 2539.44 455.573 2547.82 452.073C2558.97 447.353 2571.83 444.993 2586.4 444.993C2612.76 444.993 2633.84 453.172 2649.63 469.529C2665.5 485.887 2673.43 508.632 2673.43 537.767C2673.43 566.657 2665.58 589.28 2649.87 605.638C2634.17 621.914 2613.17 630.052 2586.88 630.052C2560.27 630.052 2539.11 621.954 2523.41 605.76C2507.7 589.484 2499.85 567.104 2499.85 538.621ZM2537.08 537.4C2537.08 557.664 2541.76 573.045 2551.12 583.543C2560.48 593.96 2572.36 599.168 2586.76 599.168C2601.17 599.168 2612.97 594 2622.16 583.665C2631.44 573.248 2636.08 557.664 2636.08 536.912C2636.08 516.404 2631.56 501.105 2622.53 491.014C2613.58 480.923 2601.66 475.877 2586.76 475.877C2571.87 475.877 2559.87 481.004 2550.75 491.258C2541.64 501.43 2537.08 516.811 2537.08 537.4ZM2785 561.204V531.053H2862.89V602.342C2855.32 609.666 2844.33 616.136 2829.93 621.751C2815.6 627.285 2801.08 630.052 2786.35 630.052C2767.63 630.052 2751.31 626.146 2737.4 618.333C2723.48 610.439 2713.02 599.209 2706.03 584.642C2699.03 569.993 2695.53 554.083 2695.53 536.912C2695.53 518.276 2699.43 501.715 2707.25 487.229C2715.06 472.744 2726.49 461.635 2741.55 453.904C2753.02 447.964 2767.3 444.993 2784.39 444.993C2806.61 444.993 2823.95 449.673 2836.4 459.031C2848.93 468.309 2856.99 481.167 2860.57 497.605L2824.68 504.319C2822.15 495.53 2817.39 488.613 2810.4 483.567C2803.48 478.44 2794.81 475.877 2784.39 475.877C2768.61 475.877 2756.03 480.882 2746.67 490.892C2737.4 500.901 2732.76 515.753 2732.76 535.447C2732.76 556.688 2737.48 572.638 2746.92 583.299C2756.36 593.878 2768.73 599.168 2784.03 599.168C2791.6 599.168 2799.17 597.703 2806.73 594.773C2814.38 591.762 2820.93 588.141 2826.39 583.909V561.204H2785ZM2895.23 627V448.045H2931.37V627H2895.23ZM2965.91 627V448.045H3098.6V478.318H3002.05V517.991H3091.89V548.143H3002.05V596.849H3102.02V627H2965.91ZM3123.51 568.772L3158.66 565.354C3160.78 577.155 3165.05 585.822 3171.48 591.355C3177.99 596.889 3186.74 599.656 3197.72 599.656C3209.36 599.656 3218.11 597.215 3223.97 592.332C3229.91 587.368 3232.88 581.59 3232.88 574.998C3232.88 570.766 3231.62 567.186 3229.1 564.256C3226.66 561.245 3222.34 558.641 3216.16 556.443C3211.93 554.979 3202.28 552.374 3187.23 548.631C3167.86 543.829 3154.27 537.929 3146.46 530.931C3135.47 521.084 3129.98 509.08 3129.98 494.92C3129.98 485.805 3132.54 477.301 3137.67 469.407C3142.87 461.432 3150.32 455.369 3160 451.219C3169.77 447.068 3181.53 444.993 3195.28 444.993C3217.74 444.993 3234.63 449.917 3245.94 459.764C3257.34 469.611 3263.32 482.754 3263.89 499.192L3227.75 500.779C3226.21 491.583 3222.87 484.992 3217.74 481.004C3212.7 476.935 3205.09 474.9 3194.92 474.9C3184.42 474.9 3176.2 477.057 3170.26 481.37C3166.43 484.137 3164.52 487.84 3164.52 492.479C3164.52 496.71 3166.31 500.332 3169.89 503.343C3174.45 507.168 3185.52 511.155 3203.1 515.306C3220.67 519.456 3233.65 523.769 3242.04 528.245C3250.5 532.64 3257.09 538.702 3261.81 546.434C3266.61 554.083 3269.01 563.564 3269.01 574.876C3269.01 585.13 3266.17 594.733 3260.47 603.685C3254.77 612.636 3246.72 619.31 3236.3 623.704C3225.88 628.017 3212.9 630.174 3197.36 630.174C3174.73 630.174 3157.36 624.965 3145.23 614.549C3133.11 604.051 3125.87 588.792 3123.51 568.772Z" fill="white"/>
<path d="M1403.46 810.295L1423.35 815.319C1419.18 831.657 1411.66 844.133 1400.79 852.746C1389.99 861.291 1376.76 865.563 1361.11 865.563C1344.91 865.563 1331.71 862.282 1321.53 855.72C1311.41 849.089 1303.69 839.519 1298.35 827.009C1293.09 814.499 1290.46 801.066 1290.46 786.711C1290.46 771.057 1293.43 757.419 1299.38 745.798C1305.4 734.108 1313.91 725.256 1324.91 719.24C1335.99 713.156 1348.15 710.114 1361.42 710.114C1376.46 710.114 1389.1 713.942 1399.36 721.599C1409.61 729.255 1416.75 740.021 1420.79 753.898L1401.2 758.513C1397.71 747.575 1392.66 739.611 1386.03 734.621C1379.39 729.631 1371.05 727.136 1361.01 727.136C1349.45 727.136 1339.78 729.904 1331.99 735.441C1324.26 740.979 1318.83 748.43 1315.68 757.795C1312.54 767.092 1310.97 776.696 1310.97 786.608C1310.97 799.392 1312.81 810.568 1316.5 820.139C1320.26 829.641 1326.07 836.75 1333.94 841.467C1341.8 846.184 1350.31 848.542 1359.47 848.542C1370.61 848.542 1380.04 845.329 1387.77 838.903C1395.49 832.478 1400.72 822.941 1403.46 810.295ZM1441.91 789.787C1441.91 764.836 1448.61 745.319 1462.01 731.237C1475.41 717.087 1492.7 710.012 1513.89 710.012C1527.77 710.012 1540.28 713.327 1551.42 719.958C1562.56 726.589 1571.04 735.852 1576.85 747.746C1582.73 759.572 1585.67 773.005 1585.67 788.044C1585.67 803.288 1582.59 816.926 1576.44 828.957C1570.29 840.988 1561.57 850.114 1550.29 856.335C1539.01 862.487 1526.85 865.563 1513.79 865.563C1499.64 865.563 1486.99 862.146 1475.85 855.31C1464.71 848.474 1456.26 839.143 1450.52 827.316C1444.78 815.49 1441.91 802.98 1441.91 789.787ZM1462.42 790.095C1462.42 808.21 1467.27 822.497 1476.98 832.956C1486.75 843.347 1498.99 848.542 1513.69 848.542C1528.66 848.542 1540.96 843.278 1550.6 832.751C1560.31 822.224 1565.16 807.287 1565.16 787.941C1565.16 775.705 1563.08 765.041 1558.91 755.949C1554.8 746.789 1548.75 739.714 1540.76 734.724C1532.83 729.665 1523.91 727.136 1513.99 727.136C1499.91 727.136 1487.78 731.989 1477.59 741.696C1467.48 751.335 1462.42 767.468 1462.42 790.095ZM1611.2 863V712.678H1631.61L1710.56 830.7V712.678H1729.63V863H1709.23L1630.27 744.875V863H1611.2ZM1756.4 814.704L1775.16 813.063C1776.05 820.583 1778.1 826.77 1781.31 831.623C1784.59 836.408 1789.65 840.305 1796.49 843.312C1803.33 846.252 1811.02 847.722 1819.56 847.722C1827.15 847.722 1833.85 846.594 1839.66 844.338C1845.47 842.082 1849.78 839.006 1852.58 835.109C1855.45 831.145 1856.88 826.838 1856.88 822.189C1856.88 817.473 1855.52 813.371 1852.78 809.885C1850.05 806.33 1845.54 803.356 1839.25 800.964C1835.21 799.392 1826.29 796.965 1812.49 793.684C1798.68 790.334 1789 787.189 1783.47 784.25C1776.29 780.49 1770.92 775.842 1767.37 770.305C1763.88 764.699 1762.14 758.444 1762.14 751.54C1762.14 743.952 1764.29 736.877 1768.6 730.314C1772.91 723.684 1779.19 718.659 1787.47 715.241C1795.74 711.823 1804.93 710.114 1815.05 710.114C1826.19 710.114 1836 711.926 1844.48 715.549C1853.02 719.104 1859.58 724.367 1864.17 731.34C1868.75 738.312 1871.21 746.208 1871.55 755.026L1852.48 756.462C1851.45 746.96 1847.96 739.782 1842.02 734.929C1836.14 730.075 1827.42 727.648 1815.87 727.648C1803.84 727.648 1795.05 729.87 1789.52 734.313C1784.05 738.688 1781.31 743.986 1781.31 750.207C1781.31 755.607 1783.26 760.051 1787.16 763.537C1790.99 767.023 1800.97 770.612 1817.1 774.304C1833.3 777.927 1844.41 781.105 1850.42 783.84C1859.17 787.873 1865.63 793 1869.8 799.221C1873.97 805.373 1876.06 812.482 1876.06 820.549C1876.06 828.547 1873.77 836.101 1869.19 843.21C1864.61 850.251 1858.01 855.754 1849.4 859.719C1840.85 863.615 1831.22 865.563 1820.48 865.563C1806.88 865.563 1795.46 863.581 1786.24 859.616C1777.08 855.651 1769.86 849.704 1764.6 841.774C1759.4 833.776 1756.67 824.753 1756.4 814.704ZM2001.88 712.678H2021.77V799.528C2021.77 814.636 2020.06 826.633 2016.64 835.52C2013.22 844.406 2007.04 851.652 1998.08 857.258C1989.19 862.795 1977.5 865.563 1963.01 865.563C1948.93 865.563 1937.41 863.137 1928.46 858.283C1919.5 853.43 1913.11 846.423 1909.28 837.263C1905.45 828.034 1903.54 815.456 1903.54 799.528V712.678H1923.43V799.426C1923.43 812.482 1924.63 822.121 1927.02 828.342C1929.48 834.494 1933.65 839.245 1939.53 842.595C1945.48 845.944 1952.72 847.619 1961.27 847.619C1975.9 847.619 1986.32 844.304 1992.54 837.673C1998.76 831.042 2001.88 818.293 2001.88 799.426V712.678ZM2054.17 863V712.678H2074.06V845.261H2148.1V863H2054.17ZM2194.55 863V730.417H2145.02V712.678H2264.17V730.417H2214.44V863H2194.55ZM2288.06 863V712.678H2307.95V863H2288.06ZM2342.92 863V712.678H2363.33L2442.28 830.7V712.678H2461.35V863H2440.95L2361.99 744.875V863H2342.92ZM2565.22 804.04V786.403L2628.9 786.301V842.082C2619.13 849.875 2609.04 855.754 2598.65 859.719C2588.26 863.615 2577.6 865.563 2566.66 865.563C2551.89 865.563 2538.46 862.419 2526.36 856.13C2514.33 849.772 2505.24 840.612 2499.09 828.649C2492.93 816.687 2489.86 803.322 2489.86 788.557C2489.86 773.928 2492.9 760.29 2498.98 747.644C2505.14 734.929 2513.96 725.495 2525.44 719.343C2536.92 713.19 2550.15 710.114 2565.12 710.114C2575.99 710.114 2585.8 711.892 2594.55 715.446C2603.37 718.933 2610.27 723.82 2615.26 730.109C2620.25 736.398 2624.05 744.602 2626.65 754.719L2608.7 759.641C2606.45 751.984 2603.64 745.969 2600.29 741.594C2596.94 737.219 2592.16 733.732 2585.94 731.135C2579.72 728.469 2572.81 727.136 2565.22 727.136C2556.13 727.136 2548.27 728.537 2541.64 731.34C2535.01 734.074 2529.64 737.697 2525.54 742.209C2521.51 746.721 2518.36 751.677 2516.11 757.077C2512.28 766.374 2510.37 776.457 2510.37 787.326C2510.37 800.725 2512.66 811.936 2517.24 820.959C2521.88 829.982 2528.62 836.682 2537.44 841.057C2546.25 845.432 2555.62 847.619 2565.53 847.619C2574.15 847.619 2582.55 845.979 2590.76 842.697C2598.96 839.348 2605.18 835.793 2609.42 832.033V804.04H2565.22Z" fill="white"/>
</svg>
