<svg xmlns="http://www.w3.org/2000/svg" viewBox="0 0 500 500"><g id="freepik--Bookshelf--inject-11"><g id="freepik--bookshelf--inject-11"><path d="M319.9,165.09,264.29,133a3,3,0,0,0-3-.29l-4,2.31a3,3,0,0,0-1.27,2.77V290a9.45,9.45,0,0,0,4.28,7.4l55.6,32.05a3,3,0,0,0,3,.3l4-2.32a3,3,0,0,0,1.25-2.76V172.49A9.44,9.44,0,0,0,319.9,165.09Z" style="fill:#263238"></path><path d="M268,292.61l-4,2.31v12.66a2.36,2.36,0,0,0,1.07,1.85l1.87,1.08a2.37,2.37,0,0,0,2.14,0l1.87-1.08a3.8,3.8,0,0,0,1.47-1.79l3.61-10.4Z" style="fill:#263238"></path><path d="M264,307.58a2.36,2.36,0,0,0,1.07,1.85l1.87,1.08a1,1,0,0,0,1.47-.55L272,299.55l-8-4.63Z" style="fill:#37474f"></path><path d="M308.12,315.7l-4,2.32v12.65a2.37,2.37,0,0,0,1.06,1.86l1.88,1.08a2.35,2.35,0,0,0,2.13,0l1.88-1.08a3.8,3.8,0,0,0,1.47-1.79l3.6-10.41Z" style="fill:#263238"></path><path d="M304.12,330.67a2.37,2.37,0,0,0,1.06,1.86l1.88,1.08a1,1,0,0,0,1.47-.55l3.61-10.41-8-4.63Z" style="fill:#37474f"></path><path d="M260.56,135.43l55.6,32a9.47,9.47,0,0,1,4.28,7.41V327.05a2.61,2.61,0,0,1-4.28,2.47l-55.6-32.06a9.44,9.44,0,0,1-4.27-7.4V137.89a2.6,2.6,0,0,1,4.27-2.46Z" style="fill:#37474f"></path><g id="freepik--Bottom--inject-11"><polygon points="179.82 343.48 239.96 378.2 324.16 329.59 320.15 327.27 260.01 292.55 179.82 338.85 179.82 343.48" style="fill:#455a64"></polygon><polygon points="239.96 378.2 239.96 373.57 324.16 324.96 324.16 329.59 239.96 378.2" style="fill:#263238"></polygon></g><path d="M240.34,371.46l-.61-.41C250.4,354.9,250.33,327,249.46,320c-.07-.47-.12-.76-.13-.87l.73-.12c0,.22.08.48.12.79.78,4.95,5.19,31.84,10.41,40l-.62.4c-4.13-6.41-7.66-23.71-9.43-33.69C250.65,337.84,249,358.43,240.34,371.46Z" style="fill:#fafafa"></path><path d="M275.46,346.8c-.91-.27-22.17-6.71-24.13-16.09l.73-.15c1.86,8.95,23.39,15.47,23.61,15.54Z" style="fill:#fafafa"></path><path d="M254,343l-.54-2.29a1.89,1.89,0,0,0-1.76-1.56,1.74,1.74,0,0,0-1.78.89l-.69-.29a2.48,2.48,0,0,1,2.53-1.34,2.6,2.6,0,0,1,1.89,1A3.68,3.68,0,0,1,255,337a1.85,1.85,0,0,1,1.82.06l-.33.66a1.16,1.16,0,0,0-1.13-.07c-.85.48-1.18,2.33-1.23,3Z" style="fill:#fafafa"></path><path d="M256.09,350.63l-.66-2.08c-.75-2.35-2-3.7-3.48-3.79a3.18,3.18,0,0,0-2.95,1.85l-.67-.32A3.89,3.89,0,0,1,252,344c.89.05,2.42.53,3.56,2.85.25-1.83,1-4.77,2.93-6a4.6,4.6,0,0,1,4.51.05l-.31.67a3.89,3.89,0,0,0-3.8-.09c-2.57,1.6-2.74,6.89-2.74,6.95Z" style="fill:#fafafa"></path><path d="M247.06,355.71l-.66-.34c1.48-2.85,4.73-4.9,7.55-4.76a4,4,0,0,1,3.1,1.53,10.85,10.85,0,0,1,4.74-7.08,9.21,9.21,0,0,1,9-.67l-.29.67a8.53,8.53,0,0,0-8.28.62,9.91,9.91,0,0,0-4.5,7.68l0,1.89-.7-1.76a3.28,3.28,0,0,0-3.06-2.14C251.37,351.22,248.42,353.1,247.06,355.71Z" style="fill:#fafafa"></path><path d="M243,366.75l-.65-.36c.9-1.64,5.69-9.88,11.36-11.37a5.89,5.89,0,0,1,4.78.69l-.38.63a5.22,5.22,0,0,0-4.21-.61C249.74,356.83,245.44,362.35,243,366.75Z" style="fill:#fafafa"></path><polygon points="316.14 278.66 316.14 283.29 239.96 327.27 179.82 292.55 179.82 287.92 256 243.94 316.14 278.66" style="fill:#263238"></polygon><polygon points="316.14 278.66 239.96 322.64 179.82 287.92 256 243.94 316.14 278.66" style="fill:#455a64"></polygon><polygon points="316.14 227.74 316.14 232.36 239.96 276.35 179.82 241.62 179.82 237 256 193.01 316.14 227.74" style="fill:#263238"></polygon><polygon points="316.14 227.74 239.96 271.72 179.82 237 256 193.01 316.14 227.74" style="fill:#455a64"></polygon><g id="freepik--Side--inject-11"><path d="M239.7,211.33l-55.6-32.05a3,3,0,0,0-3-.3c-.72.41-3.28,1.9-4,2.31a3,3,0,0,0-1.26,2.77V336.23a9.45,9.45,0,0,0,4.28,7.4l55.6,32.06a3,3,0,0,0,3,.3c.72-.42,3.3-1.9,4-2.33A3,3,0,0,0,244,370.9V218.74A9.45,9.45,0,0,0,239.7,211.33Z" style="fill:#263238"></path><polygon points="239.96 234.69 243.98 232.37 243.98 218.47 239.95 220.79 239.96 234.69" style="opacity:0.2"></polygon><polygon points="320.16 188.39 324.18 186.08 324.18 172.18 320.15 174.5 320.16 188.39" style="opacity:0.2"></polygon><path d="M187.84,338.85l-4,2.31v12.66a2.36,2.36,0,0,0,1.07,1.85l1.87,1.08a2.37,2.37,0,0,0,2.14,0l1.87-1.08a3.82,3.82,0,0,0,1.47-1.78l3.61-10.41Z" style="fill:#263238"></path><path d="M183.83,353.82a2.36,2.36,0,0,0,1.07,1.85l1.87,1.08a1,1,0,0,0,1.47-.55l3.61-10.41-8-4.63Z" style="fill:#37474f"></path><path d="M227.93,362l-4,2.31v12.66a2.35,2.35,0,0,0,1.06,1.85l1.88,1.08a2.35,2.35,0,0,0,2.13,0l1.88-1.08a3.88,3.88,0,0,0,1.47-1.78l3.6-10.41Z" style="fill:#263238"></path><path d="M223.93,376.92a2.35,2.35,0,0,0,1.06,1.85l1.88,1.08a1,1,0,0,0,1.47-.55l3.6-10.41-8-4.63Z" style="fill:#37474f"></path><path d="M180.08,181.6l55.61,32.05a9.46,9.46,0,0,1,4.27,7.41V378.2s-3.09-1.83-4.27-2.51l-55.6-32.06a9.45,9.45,0,0,1-4.28-7.4V184.06a2.6,2.6,0,0,1,4.27-2.46Z" style="fill:#37474f"></path><path d="M235.69,213.65,180.08,181.6a2.6,2.6,0,0,0-4.27,2.46v13.59l64.15,37V221.06A9.46,9.46,0,0,0,235.69,213.65Z" style="opacity:0.2"></path></g><path d="M312.13,228.11a.38.38,0,0,1-.37-.37V182.08l-43.55,25.14a.35.35,0,0,1-.5-.13.37.37,0,0,1,.13-.51L312,181.12a.35.35,0,0,1,.37,0,.37.37,0,0,1,.18.32v46.3A.37.37,0,0,1,312.13,228.11Z" style="fill:#fafafa"></path><path d="M304.11,216.53H304a.37.37,0,0,1-.28-.44l7.46-32.31-14.8,25.63a.36.36,0,0,1-.5.14.37.37,0,0,1-.14-.51l16-27.78a.38.38,0,0,1,.46-.16.37.37,0,0,1,.22.43l-8,34.73A.36.36,0,0,1,304.11,216.53Z" style="fill:#fafafa"></path><path d="M288.08,205a.36.36,0,0,1-.27-.12.37.37,0,0,1,0-.52l24.06-23.15a.37.37,0,0,1,.52,0,.38.38,0,0,1,0,.53l-24.06,23.14A.36.36,0,0,1,288.08,205Z" style="fill:#fafafa"></path><path d="M312.13,220.72h0a.38.38,0,0,1-.37-.37c0-6.06-6.76-6.47-7.05-6.48a.39.39,0,0,1-.28-.15.36.36,0,0,1-.06-.3,7.19,7.19,0,0,0-2.31-6.81,3.45,3.45,0,0,0-2.66-1,1.85,1.85,0,0,0-1.27.86.37.37,0,0,1-.43.17.37.37,0,0,1-.26-.38c0-.23.41-5.62-4.33-6.15a.38.38,0,0,1-.29-.2.37.37,0,0,1,0-.34s2.1-3.93,1.29-5.86a1.56,1.56,0,0,0-1.07-.92.36.36,0,0,1-.25-.46.38.38,0,0,1,.46-.25,2.27,2.27,0,0,1,1.54,1.35c.77,1.83-.53,4.86-1.09,6,3.68.71,4.36,4.18,4.46,5.9a2.82,2.82,0,0,1,1.1-.47,4,4,0,0,1,3.27,1.21,8,8,0,0,1,2.63,7.12c1.62.21,7.34,1.34,7.33,7.18A.37.37,0,0,1,312.13,220.72Z" style="fill:#fafafa"></path><path d="M312.13,210.74a.37.37,0,0,1-.37-.34c-.16-2.12-1.39-4.86-2.94-5.54a1.73,1.73,0,0,0-1.87.3.38.38,0,0,1-.41,0,.37.37,0,0,1-.19-.36s.33-3.75-1.36-5.3a3,3,0,0,0-2.68-.6.36.36,0,0,1-.35-.12.38.38,0,0,1-.07-.37c.34-.93,1-3.54.11-4.47-.42-.43-1.19-.47-2.3-.11a.37.37,0,0,1-.42-.14.38.38,0,0,1,0-.44c.62-.78,2.15-3.06,1.77-4.15a.92.92,0,0,0-.74-.56.37.37,0,0,1-.27-.45.35.35,0,0,1,.44-.27,1.62,1.62,0,0,1,1.27,1c.41,1.19-.59,3-1.29,4a2.28,2.28,0,0,1,2.06.53c1.1,1.14.57,3.55.24,4.68a3.48,3.48,0,0,1,2.72.85c1.49,1.36,1.65,4,1.63,5.21a2.35,2.35,0,0,1,2,0c1.89.83,3.2,3.78,3.39,6.17a.36.36,0,0,1-.34.39Z" style="fill:#fafafa"></path><g id="freepik--Top--inject-11"><path d="M333.67,165.24a3,3,0,0,0-1.76-2.47L272.3,128.35a9.47,9.47,0,0,0-8.55,0l-91.68,52.94a3,3,0,0,0-1.76,2.47v4.63a3,3,0,0,0,1.76,2.47l59.61,34.41a9.41,9.41,0,0,0,8.55,0l91.68-52.93a3,3,0,0,0,1.76-2.47Z" style="fill:#37474f"></path><path d="M231.68,220.64l-59.61-34.41c-2.36-1.37-2.36-3.58,0-4.94l91.68-52.94a9.47,9.47,0,0,1,8.55,0l59.61,34.42c2.37,1.37,2.37,3.57,0,4.94l-91.68,52.93A9.41,9.41,0,0,1,231.68,220.64Z" style="fill:#455a64"></path></g><g id="freepik--Shadows--inject-11"><polygon points="320.15 179.12 292.09 213.85 243.98 241.63 243.97 223.11 320.15 179.12" style="opacity:0.1"></polygon><polygon points="316.14 232.36 292.09 264.77 243.98 292.56 243.98 274.03 316.14 232.36" style="opacity:0.1"></polygon><polygon points="316.14 283.29 292.09 315.7 243.98 343.49 243.98 324.96 316.14 283.29" style="opacity:0.1"></polygon></g></g></g><g id="freepik--Box--inject-11"><g id="freepik--box--inject-11"><polygon points="205.78 384.44 132.02 427.03 48.96 378.96 122.72 336.38 205.78 384.44" style="fill:#2F3640"></polygon><polygon points="205.78 384.44 132.02 427.03 48.96 378.96 122.72 336.38 205.78 384.44" style="opacity:0.5"></polygon><polygon points="122.72 278.65 122.72 336.38 48.96 378.96 48.96 321.24 122.72 278.65" style="fill:#2F3640"></polygon><polygon points="122.72 278.65 122.72 336.38 48.96 378.96 48.96 321.24 122.72 278.65" style="opacity:0.23"></polygon><polygon points="132.02 369.3 132.02 427.03 48.96 378.96 48.96 321.24 132.02 369.3" style="fill:#2F3640"></polygon><polygon points="132.02 369.3 132.02 427.03 48.96 378.96 48.96 321.24 132.02 369.3" style="opacity:0.38"></polygon><polygon points="205.78 326.71 205.78 384.44 122.72 336.38 122.72 278.65 205.78 326.71" style="fill:#2F3640"></polygon><polygon points="205.78 326.71 205.78 384.44 122.72 336.38 122.72 278.65 205.78 326.71" style="opacity:0.4"></polygon><polygon points="205.78 384.44 205.78 326.71 132.02 369.3 132.02 427.03 205.78 384.44" style="fill:#2F3640"></polygon><polygon points="205.78 384.44 205.78 326.71 132.02 369.3 132.02 427.03 205.78 384.44" style="opacity:0.23"></polygon><polygon points="122.72 278.65 122.82 246.69 205.68 294.81 205.78 326.71 122.72 278.65" style="fill:#2F3640"></polygon><polygon points="122.72 278.65 122.82 246.69 205.68 294.81 205.78 326.71 122.72 278.65" style="opacity:0.2"></polygon><polygon points="132.02 369.3 138.94 341.34 212.03 299.14 205.78 326.71 132.02 369.3" style="fill:#2F3640"></polygon><polygon points="132.02 369.3 138.94 341.34 212.03 299.14 205.78 326.71 132.02 369.3" style="opacity:0.30000000000000004"></polygon><polygon points="48.96 321.24 40.16 292.24 113.92 249.66 122.72 278.65 48.96 321.24" style="fill:#2F3640"></polygon><polygon points="48.96 321.24 40.16 292.24 113.92 249.66 122.72 278.65 48.96 321.24" style="opacity:0.1"></polygon><polygon points="48.96 321.24 31.6 297.27 114.67 345.33 132.02 369.3 48.96 321.24" style="fill:#2F3640"></polygon><polygon points="48.96 321.24 31.6 297.27 114.67 345.33 132.02 369.3 48.96 321.24" style="opacity:0.45"></polygon><g style="opacity:0.7000000000000001"><path d="M153.74,409.86a.46.46,0,0,1-.46-.45V399.25a.47.47,0,0,1,.46-.46.46.46,0,0,1,.45.46v10.16A.45.45,0,0,1,153.74,409.86Z" style="fill:#fff"></path><path d="M152.41,402.77a.58.58,0,0,1-.18,0,.47.47,0,0,1-.24-.6l1.62-3.73,1.8,2.08a.46.46,0,0,1-.69.6l-.85-1-1,2.4A.47.47,0,0,1,152.41,402.77Z" style="fill:#fff"></path><path d="M157.93,407.47a.46.46,0,0,1-.45-.46V396.86a.45.45,0,1,1,.9,0V407A.46.46,0,0,1,157.93,407.47Z" style="fill:#fff"></path><path d="M156.6,400.38a.58.58,0,0,1-.18,0,.45.45,0,0,1-.23-.6L157.8,396l1.8,2.07a.46.46,0,0,1,0,.64.45.45,0,0,1-.64,0l-.85-1-1,2.4A.46.46,0,0,1,156.6,400.38Z" style="fill:#fff"></path></g><g style="opacity:0.7000000000000001"><path d="M141.65,416.75a1,1,0,0,1-.49-.12,1.2,1.2,0,0,1-.55-1.09v-1.25a.46.46,0,0,1,.46-.45.45.45,0,0,1,.45.45v1.25c0,.18,0,.28.09.3s.14,0,.29-.08a2.65,2.65,0,0,0,.85-2.05v-5.2a.45.45,0,1,1,.9,0v5.2a3.44,3.44,0,0,1-1.29,2.83A1.41,1.41,0,0,1,141.65,416.75Z" style="fill:#fff"></path><path d="M136.88,412.56v-.78a12.87,12.87,0,0,1,5.79-10c1.64-.94,3.2-1.08,4.4-.38a4.33,4.33,0,0,1,1.86,4v.26Zm8.51-10.74a4.7,4.7,0,0,0-2.26.7,12,12,0,0,0-5.3,8.45L148,405.09a3.37,3.37,0,0,0-1.41-3A2.38,2.38,0,0,0,145.39,401.82Z" style="fill:#fff"></path></g><polygon points="31.6 297.27 114.67 345.33 132.02 369.3 113.75 346.18 31.6 297.27" style="fill:#fff;opacity:0.7000000000000001"></polygon><polygon points="205.78 326.71 132.02 369.3 132.02 427.03 133.4 370.46 205.78 326.71" style="fill:#fff;opacity:0.7000000000000001"></polygon></g></g></svg>