<?xml version="1.0" encoding="utf-8"?>
<!-- Generator: Adobe Illustrator 22.0.1, SVG Export Plug-In . SVG Version: 6.00 Build 0) -->
<svg version="1.1" id="Layer_1" xmlns="http://www.w3.org/2000/svg" xmlns:xlink="http://www.w3.org/1999/xlink" x="0px" y="0px" viewBox="0 0 597.3 1031" style="enable-background:new 0 0 597.3 1031;" xml:space="preserve">
	<style type="text/css">
		.st0{opacity:0.15;}
		.st1{fill:#FFFFFF;}
		.st2{fill:#39B5AD;}
		.st3{fill:#153962;}
		.st4{fill:#E74925;}
		.st5{fill:#37B4AC;}
	</style>
	<g class="st0">
		<g>
			<rect x="571.5" y="0" class="st1" width="25.8" height="25.8" />
			<rect x="571.5" y="27.9" class="st2" width="25.8" height="25.8" />
			<rect x="571.5" y="55.8" class="st1" width="25.8" height="25.8" />
			<rect x="571.5" y="167.5" class="st1" width="25.8" height="25.8" />
			<rect x="571.5" y="195.5" class="st1" width="25.8" height="25.8" />
			<rect x="571.5" y="223.4" class="st1" width="25.8" height="25.8" />
			<rect x="571.5" y="307.1" class="st1" width="25.8" height="25.8" />
			<rect x="571.5" y="335.1" class="st1" width="25.8" height="25.8" />
			<rect x="571.5" y="363" class="st1" width="25.8" height="25.8" />
			<rect x="571.5" y="390.9" class="st1" width="25.8" height="25.8" />
			<rect x="571.5" y="474.7" class="st1" width="25.8" height="25.8" />
			<rect x="571.5" y="502.6" class="st1" width="25.8" height="25.8" />
			<rect x="571.5" y="614.3" class="st1" width="25.8" height="25.8" />
			<rect x="571.5" y="642.2" class="st1" width="25.8" height="25.8" />
			<rect x="571.5" y="670.1" class="st1" width="25.8" height="25.8" />
			<rect x="571.5" y="698" class="st1" width="25.8" height="25.8" />
			<rect x="571.5" y="781.8" class="st1" width="25.8" height="25.8" />
			<rect x="571.5" y="809.7" class="st1" width="25.8" height="25.8" />
			<rect x="571.5" y="837.6" class="st1" width="25.8" height="25.8" />
			<rect x="571.5" y="865.6" class="st3" width="25.8" height="25.8" />
			<rect x="571.5" y="893.5" class="st1" width="25.8" height="25.8" />
			<rect x="571.5" y="949.3" class="st1" width="25.8" height="25.8" />
		</g>
		<g>
			<rect x="541.4" y="0" class="st1" width="25.8" height="25.8" />
			<rect x="541.4" y="27.9" class="st1" width="25.8" height="25.8" />
			<rect x="541.4" y="111.7" class="st1" width="25.8" height="25.8" />
			<rect x="541.4" y="139.6" class="st1" width="25.8" height="25.8" />
			<rect x="541.4" y="167.5" class="st2" width="25.8" height="25.8" />
			<rect x="541.4" y="195.5" class="st1" width="25.8" height="25.8" />
			<rect x="541.4" y="251.3" class="st1" width="25.8" height="25.8" />
			<rect x="541.4" y="279.2" class="st1" width="25.8" height="25.8" />
			<rect x="541.4" y="307.1" class="st1" width="25.8" height="25.8" />
			<rect x="541.4" y="335.1" class="st1" width="25.8" height="25.8" />
			<rect x="541.4" y="363" class="st1" width="25.8" height="25.8" />
			<rect x="541.4" y="390.9" class="st1" width="25.8" height="25.8" />
			<rect x="541.4" y="474.7" class="st1" width="25.8" height="25.8" />
			<rect x="541.4" y="502.6" class="st1" width="25.8" height="25.8" />
			<rect x="541.4" y="586.4" class="st1" width="25.8" height="25.8" />
			<rect x="541.4" y="614.3" class="st1" width="25.8" height="25.8" />
			<rect x="541.4" y="642.2" class="st1" width="25.8" height="25.8" />
			<rect x="541.4" y="670.1" class="st1" width="25.8" height="25.8" />
			<rect x="541.4" y="781.8" class="st1" width="25.8" height="25.8" />
			<rect x="541.4" y="809.7" class="st1" width="25.8" height="25.8" />
			<rect x="541.4" y="837.6" class="st1" width="25.8" height="25.8" />
			<rect x="541.4" y="865.6" class="st1" width="25.8" height="25.8" />
			<rect x="541.4" y="893.5" class="st1" width="25.8" height="25.8" />
			<rect x="541.4" y="949.3" class="st1" width="25.8" height="25.8" />
			<rect x="541.4" y="977.3" class="st4" width="25.8" height="25.8" />
		</g>
		<g>
			<rect x="511.4" y="0" class="st4" width="25.8" height="25.8" />
			<rect x="511.4" y="83.8" class="st1" width="25.8" height="25.8" />
			<rect x="511.4" y="111.7" class="st1" width="25.8" height="25.8" />
			<rect x="511.4" y="139.6" class="st1" width="25.8" height="25.8" />
			<rect x="511.4" y="167.5" class="st1" width="25.8" height="25.8" />
			<rect x="511.4" y="251.3" class="st1" width="25.8" height="25.8" />
			<rect x="511.4" y="279.2" class="st1" width="25.8" height="25.8" />
			<rect x="511.4" y="307.1" class="st1" width="25.8" height="25.8" />
			<rect x="511.4" y="390.9" class="st1" width="25.8" height="25.8" />
			<rect x="511.4" y="418.8" class="st1" width="25.8" height="25.8" />
			<rect x="511.4" y="446.7" class="st1" width="25.8" height="25.8" />
			<rect x="511.4" y="474.7" class="st1" width="25.8" height="25.8" />
			<rect x="511.4" y="502.6" class="st1" width="25.8" height="25.8" />
			<rect x="511.4" y="558.4" class="st1" width="25.8" height="25.8" />
			<rect x="511.4" y="586.4" class="st1" width="25.8" height="25.8" />
			<rect x="511.4" y="614.3" class="st1" width="25.8" height="25.8" />
			<rect x="511.4" y="642.2" class="st1" width="25.8" height="25.8" />
			<rect x="511.4" y="726" class="st1" width="25.8" height="25.8" />
			<rect x="511.4" y="753.9" class="st1" width="25.8" height="25.8" />
			<rect x="511.4" y="781.8" class="st2" width="25.8" height="25.8" />
			<rect x="511.4" y="809.7" class="st1" width="25.8" height="25.8" />
			<rect x="511.4" y="949.3" class="st1" width="25.8" height="25.8" />
			<rect x="511.4" y="977.3" class="st1" width="25.8" height="25.8" />
		</g>
		<g>
			<rect x="481.3" y="0" class="st1" width="25.8" height="25.8" />
			<rect x="481.3" y="55.8" class="st1" width="25.8" height="25.8" />
			<rect x="481.3" y="83.8" class="st1" width="25.8" height="25.8" />
			<rect x="481.3" y="111.7" class="st1" width="25.8" height="25.8" />
			<rect x="481.3" y="139.6" class="st3" width="25.8" height="25.8" />
			<rect x="481.3" y="167.5" class="st1" width="25.8" height="25.8" />
			<rect x="481.3" y="251.3" class="st4" width="25.8" height="25.8" />
			<rect x="481.3" y="279.2" class="st1" width="25.8" height="25.8" />
			<rect x="481.3" y="390.9" class="st1" width="25.8" height="25.8" />
			<rect x="481.3" y="418.8" class="st1" width="25.8" height="25.8" />
			<rect x="481.3" y="446.7" class="st1" width="25.8" height="25.8" />
			<rect x="481.3" y="474.7" class="st1" width="25.8" height="25.8" />
			<rect x="481.3" y="502.6" class="st1" width="25.8" height="25.8" />
			<rect x="481.3" y="530.5" class="st1" width="25.8" height="25.8" />
			<rect x="481.3" y="726" class="st1" width="25.8" height="25.8" />
			<rect x="481.3" y="753.9" class="st1" width="25.8" height="25.8" />
			<rect x="481.3" y="809.7" class="st1" width="25.8" height="25.8" />
			<rect x="481.3" y="837.6" class="st1" width="25.8" height="25.8" />
			<rect x="481.3" y="893.5" class="st1" width="25.8" height="25.8" />
			<rect x="481.3" y="921.4" class="st1" width="25.8" height="25.8" />
			<rect x="481.3" y="949.3" class="st1" width="25.8" height="25.8" />
			<rect x="481.3" y="1005.2" class="st1" width="25.8" height="25.8" />
		</g>
		<g>
			<rect x="451.2" y="0" class="st1" width="25.8" height="25.8" />
			<rect x="451.2" y="27.9" class="st2" width="25.8" height="25.8" />
			<rect x="451.2" y="55.8" class="st1" width="25.8" height="25.8" />
			<rect x="451.2" y="111.7" class="st1" width="25.8" height="25.8" />
			<rect x="451.2" y="139.6" class="st1" width="25.8" height="25.8" />
			<rect x="451.2" y="167.5" class="st1" width="25.8" height="25.8" />
			<rect x="451.2" y="251.3" class="st1" width="25.8" height="25.8" />
			<rect x="451.2" y="279.2" class="st1" width="25.8" height="25.8" />
			<rect x="451.2" y="307.1" class="st1" width="25.8" height="25.8" />
			<rect x="451.2" y="363" class="st1" width="25.8" height="25.8" />
			<rect x="451.2" y="390.9" class="st1" width="25.8" height="25.8" />
			<rect x="451.2" y="418.8" class="st1" width="25.8" height="25.8" />
			<rect x="451.2" y="446.7" class="st1" width="25.8" height="25.8" />
			<rect x="451.2" y="530.5" class="st1" width="25.8" height="25.8" />
			<rect x="451.2" y="586.4" class="st1" width="25.8" height="25.8" />
			<rect x="451.2" y="614.3" class="st1" width="25.8" height="25.8" />
			<rect x="451.2" y="642.2" class="st1" width="25.8" height="25.8" />
			<polyline class="st1" points="477,698 477,723.8 451.2,723.8 451.2,698 		" />
			<rect x="451.2" y="726" class="st1" width="25.8" height="25.8" />
			<rect x="451.2" y="753.9" class="st1" width="25.8" height="25.8" />
			<rect x="451.2" y="809.7" class="st1" width="25.8" height="25.8" />
			<rect x="451.2" y="837.6" class="st1" width="25.8" height="25.8" />
			<rect x="451.2" y="921.4" class="st4" width="25.8" height="25.8" />
			<rect x="451.2" y="949.3" class="st1" width="25.8" height="25.8" />
			<rect x="451.2" y="1005.2" class="st1" width="25.8" height="25.8" />
		</g>
		<g>
			<rect x="421.1" y="0" class="st1" width="25.8" height="25.8" />
			<rect x="421.1" y="55.8" class="st1" width="25.8" height="25.8" />
			<rect x="421.1" y="111.7" class="st1" width="25.8" height="25.8" />
			<rect x="421.1" y="139.6" class="st1" width="25.8" height="25.8" />
			<rect x="421.1" y="195.5" class="st1" width="25.8" height="25.8" />
			<rect x="421.1" y="223.4" class="st1" width="25.8" height="25.8" />
			<rect x="421.1" y="251.3" class="st1" width="25.8" height="25.8" />
			<rect x="421.1" y="279.2" class="st1" width="25.8" height="25.8" />
			<rect x="421.1" y="307.1" class="st1" width="25.8" height="25.8" />
			<rect x="421.1" y="363" class="st1" width="25.8" height="25.8" />
			<rect x="421.1" y="390.9" class="st1" width="25.8" height="25.8" />
			<rect x="421.1" y="418.8" class="st1" width="25.8" height="25.8" />
			<rect x="421.1" y="446.7" class="st1" width="25.8" height="25.8" />
			<rect x="421.1" y="530.5" class="st1" width="25.8" height="25.8" />
			<rect x="421.1" y="586.4" class="st1" width="25.8" height="25.8" />
			<rect x="421.1" y="642.2" class="st1" width="25.8" height="25.8" />
			<rect x="421.1" y="698" class="st1" width="25.8" height="25.8" />
			<rect x="421.1" y="726" class="st1" width="25.8" height="25.8" />
			<rect x="421.1" y="753.9" class="st1" width="25.8" height="25.8" />
			<rect x="421.1" y="809.7" class="st1" width="25.8" height="25.8" />
			<rect x="421.1" y="837.6" class="st1" width="25.8" height="25.8" />
			<rect x="421.1" y="865.6" class="st1" width="25.8" height="25.8" />
			<rect x="421.1" y="893.5" class="st1" width="25.8" height="25.8" />
			<rect x="421.1" y="921.4" class="st1" width="25.8" height="25.8" />
			<rect x="421.1" y="1005.2" class="st1" width="25.8" height="25.8" />
		</g>
		<g>
			<rect x="391" y="0" class="st1" width="25.8" height="25.8" />
			<rect x="391" y="27.9" class="st1" width="25.8" height="25.8" />
			<rect x="391" y="55.8" class="st1" width="25.8" height="25.8" />
			<rect x="391" y="139.6" class="st1" width="25.8" height="25.8" />
			<rect x="391" y="195.5" class="st1" width="25.8" height="25.8" />
			<rect x="391" y="223.4" class="st2" width="25.8" height="25.8" />
			<rect x="391" y="251.3" class="st1" width="25.8" height="25.8" />
			<rect x="391" y="307.1" class="st1" width="25.8" height="25.8" />
			<rect x="391" y="390.9" class="st1" width="25.8" height="25.8" />
			<rect x="391" y="418.8" class="st1" width="25.8" height="25.8" />
			<rect x="391" y="446.7" class="st1" width="25.8" height="25.8" />
			<rect x="391" y="502.6" class="st1" width="25.8" height="25.8" />
			<rect x="391" y="530.5" class="st1" width="25.8" height="25.8" />
			<rect x="391" y="558.4" class="st1" width="25.8" height="25.8" />
			<rect x="391" y="586.4" class="st1" width="25.8" height="25.8" />
			<rect x="391" y="642.2" class="st1" width="25.8" height="25.8" />
			<rect x="391" y="698" class="st1" width="25.8" height="25.8" />
			<rect x="391" y="726" class="st1" width="25.8" height="25.8" />
			<rect x="391" y="753.9" class="st3" width="25.8" height="25.8" />
			<rect x="391" y="865.6" class="st1" width="25.8" height="25.8" />
			<rect x="391" y="893.5" class="st2" width="25.8" height="25.8" />
			<rect x="391" y="921.4" class="st1" width="25.8" height="25.8" />
			<rect x="391" y="977.3" class="st1" width="25.8" height="25.8" />
			<rect x="391" y="1005.2" class="st1" width="25.8" height="25.8" />
		</g>
		<g>
			<rect x="361" y="0" class="st1" width="25.8" height="25.8" />
			<rect x="361" y="55.8" class="st1" width="25.8" height="25.8" />
			<rect x="361" y="83.8" class="st1" width="25.8" height="25.8" />
			<rect x="361" y="139.6" class="st1" width="25.8" height="25.8" />
			<rect x="361" y="195.5" class="st1" width="25.8" height="25.8" />
			<rect x="361" y="223.4" class="st1" width="25.8" height="25.8" />
			<rect x="361" y="251.3" class="st1" width="25.8" height="25.8" />
			<rect x="361" y="307.1" class="st1" width="25.8" height="25.8" />
			<rect x="361" y="335.1" class="st1" width="25.8" height="25.8" />
			<rect x="361" y="390.9" class="st1" width="25.8" height="25.8" />
			<rect x="361" y="502.6" class="st1" width="25.8" height="25.8" />
			<rect x="361" y="530.5" class="st1" width="25.8" height="25.8" />
			<rect x="361" y="558.4" class="st1" width="25.8" height="25.8" />
			<rect x="361" y="586.4" class="st1" width="25.8" height="25.8" />
			<rect x="361" y="642.2" class="st1" width="25.8" height="25.8" />
			<rect x="361" y="670.1" class="st1" width="25.8" height="25.8" />
			<rect x="361" y="698" class="st1" width="25.8" height="25.8" />
			<rect x="361" y="726" class="st1" width="25.8" height="25.8" />
			<rect x="361" y="753.9" class="st1" width="25.8" height="25.8" />
			<rect x="361" y="781.8" class="st1" width="25.8" height="25.8" />
			<rect x="361" y="809.7" class="st1" width="25.8" height="25.8" />
			<rect x="361" y="865.6" class="st1" width="25.8" height="25.8" />
			<rect x="361" y="893.5" class="st1" width="25.8" height="25.8" />
			<rect x="361" y="921.4" class="st1" width="25.8" height="25.8" />
			<rect x="361" y="977.3" class="st1" width="25.8" height="25.8" />
			<rect x="361" y="1005.2" class="st1" width="25.8" height="25.8" />
		</g>
		<g>
			<rect x="330.9" y="27.9" class="st1" width="25.8" height="25.8" />
			<rect x="330.9" y="55.8" class="st1" width="25.8" height="25.8" />
			<rect x="330.9" y="83.8" class="st1" width="25.8" height="25.8" />
			<rect x="330.9" y="139.6" class="st1" width="25.8" height="25.8" />
			<rect x="330.9" y="167.5" class="st1" width="25.8" height="25.8" />
			<rect x="330.9" y="251.3" class="st1" width="25.8" height="25.8" />
			<rect x="330.9" y="307.1" class="st1" width="25.8" height="25.8" />
			<rect x="330.9" y="335.1" class="st1" width="25.8" height="25.8" />
			<rect x="330.9" y="363" class="st1" width="25.8" height="25.8" />
			<rect x="330.9" y="390.9" class="st1" width="25.8" height="25.8" />
			<rect x="330.9" y="446.7" class="st1" width="25.8" height="25.8" />
			<rect x="330.9" y="474.7" class="st1" width="25.8" height="25.8" />
			<rect x="330.9" y="502.6" class="st1" width="25.8" height="25.8" />
			<rect x="330.9" y="530.5" class="st1" width="25.8" height="25.8" />
			<rect x="330.9" y="642.2" class="st1" width="25.8" height="25.8" />
			<rect x="330.9" y="670.1" class="st1" width="25.8" height="25.8" />
			<rect x="330.9" y="753.9" class="st1" width="25.8" height="25.8" />
			<rect x="330.9" y="781.8" class="st1" width="25.8" height="25.8" />
			<rect x="330.9" y="865.6" class="st1" width="25.8" height="25.8" />
			<rect x="330.9" y="893.5" class="st1" width="25.8" height="25.8" />
			<rect x="330.9" y="977.3" class="st1" width="25.8" height="25.8" />
		</g>
		<g>
			<rect x="300.8" y="27.9" class="st1" width="25.8" height="25.8" />
			<rect x="300.8" y="55.8" class="st1" width="25.8" height="25.8" />
			<rect x="300.8" y="83.8" class="st1" width="25.8" height="25.8" />
			<rect x="300.8" y="139.6" class="st3" width="25.8" height="25.8" />
			<rect x="300.8" y="167.5" class="st1" width="25.8" height="25.8" />
			<rect x="300.8" y="223.4" class="st1" width="25.8" height="25.8" />
			<rect x="300.8" y="251.3" class="st1" width="25.8" height="25.8" />
			<rect x="300.8" y="279.2" class="st1" width="25.8" height="25.8" />
			<rect x="300.8" y="335.1" class="st1" width="25.8" height="25.8" />
			<rect x="300.8" y="363" class="st1" width="25.8" height="25.8" />
			<rect x="300.8" y="390.9" class="st1" width="25.8" height="25.8" />
			<rect x="300.8" y="474.7" class="st1" width="25.8" height="25.8" />
			<rect x="300.8" y="502.6" class="st1" width="25.8" height="25.8" />
			<rect x="300.8" y="530.5" class="st1" width="25.8" height="25.8" />
			<rect x="300.8" y="642.2" class="st1" width="25.8" height="25.8" />
			<rect x="300.8" y="670.1" class="st1" width="25.8" height="25.8" />
			<rect x="300.8" y="698" class="st1" width="25.8" height="25.8" />
			<rect x="300.8" y="781.8" class="st1" width="25.8" height="25.8" />
			<rect x="300.8" y="865.6" class="st1" width="25.8" height="25.8" />
			<rect x="300.8" y="893.5" class="st4" width="25.8" height="25.8" />
			<rect x="300.8" y="921.4" class="st1" width="25.8" height="25.8" />
			<rect x="300.8" y="977.3" class="st1" width="25.8" height="25.8" />
		</g>
		<g>
			<rect x="270.7" y="83.8" class="st1" width="25.8" height="25.8" />
			<rect x="270.7" y="223.4" class="st4" width="25.8" height="25.8" />
			<rect x="270.7" y="251.3" class="st1" width="25.8" height="25.8" />
			<rect x="270.7" y="279.2" class="st1" width="25.8" height="25.8" />
			<rect x="270.7" y="307.1" class="st1" width="25.8" height="25.8" />
			<rect x="270.7" y="335.1" class="st1" width="25.8" height="25.8" />
			<rect x="270.7" y="363" class="st1" width="25.8" height="25.8" />
			<rect x="270.7" y="390.9" class="st1" width="25.8" height="25.8" />
			<rect x="270.7" y="418.8" class="st1" width="25.8" height="25.8" />
			<rect x="270.7" y="474.7" class="st1" width="25.8" height="25.8" />
			<rect x="270.7" y="502.6" class="st1" width="25.8" height="25.8" />
			<rect x="270.7" y="530.5" class="st1" width="25.8" height="25.8" />
			<rect x="270.7" y="558.4" class="st1" width="25.8" height="25.8" />
			<rect x="270.7" y="614.3" class="st1" width="25.8" height="25.8" />
			<rect x="270.7" y="642.2" class="st1" width="25.8" height="25.8" />
			<rect x="270.7" y="670.1" class="st1" width="25.8" height="25.8" />
			<rect x="270.7" y="698" class="st1" width="25.8" height="25.8" />
			<rect x="270.7" y="726" class="st1" width="25.8" height="25.8" />
			<rect x="270.7" y="781.8" class="st2" width="25.8" height="25.8" />
			<rect x="270.7" y="809.7" class="st1" width="25.8" height="25.8" />
			<rect x="270.7" y="865.6" class="st1" width="25.8" height="25.8" />
			<rect x="270.7" y="893.5" class="st1" width="25.8" height="25.8" />
			<rect x="270.7" y="921.4" class="st1" width="25.8" height="25.8" />
			<rect x="270.7" y="977.3" class="st2" width="25.8" height="25.8" />
			<rect x="270.7" y="1005.2" class="st1" width="25.8" height="25.8" />
		</g>
		<g>
			<rect x="240.6" y="0" class="st1" width="25.8" height="25.8" />
			<rect x="240.6" y="27.9" class="st1" width="25.8" height="25.8" />
			<rect x="240.6" y="83.8" class="st1" width="25.8" height="25.8" />
			<rect x="240.6" y="111.7" class="st1" width="25.8" height="25.8" />
			<rect x="240.6" y="139.6" class="st1" width="25.8" height="25.8" />
			<rect x="240.6" y="195.5" class="st1" width="25.8" height="25.8" />
			<rect x="240.6" y="223.4" class="st1" width="25.8" height="25.8" />
			<rect x="240.6" y="251.3" class="st1" width="25.8" height="25.8" />
			<rect x="240.6" y="390.9" class="st1" width="25.8" height="25.8" />
			<rect x="240.6" y="418.8" class="st1" width="25.8" height="25.8" />
			<rect x="240.6" y="446.7" class="st1" width="25.8" height="25.8" />
			<rect x="240.6" y="474.7" class="st1" width="25.8" height="25.8" />
			<rect x="240.6" y="614.3" class="st1" width="25.8" height="25.8" />
			<rect x="240.6" y="642.2" class="st1" width="25.8" height="25.8" />
			<rect x="240.6" y="670.1" class="st1" width="25.8" height="25.8" />
			<rect x="240.6" y="698" class="st1" width="25.8" height="25.8" />
			<rect x="240.6" y="726" class="st1" width="25.8" height="25.8" />
			<rect x="240.6" y="753.9" class="st1" width="25.8" height="25.8" />
			<rect x="240.6" y="781.8" class="st1" width="25.8" height="25.8" />
			<rect x="240.6" y="809.7" class="st1" width="25.8" height="25.8" />
			<polyline class="st1" points="266.4,837.6 240.6,837.6 240.6,863.4 266.4,863.4 		" />
			<rect x="240.6" y="865.6" class="st1" width="25.8" height="25.8" />
			<rect x="240.6" y="893.5" class="st1" width="25.8" height="25.8" />
			<rect x="240.6" y="921.4" class="st1" width="25.8" height="25.8" />
			<rect x="240.6" y="1005.2" class="st1" width="25.8" height="25.8" />
		</g>
		<g>
			<rect x="210.6" y="0" class="st1" width="25.8" height="25.8" />
			<rect x="210.6" y="27.9" class="st1" width="25.8" height="25.8" />
			<rect x="210.6" y="83.8" class="st1" width="25.8" height="25.8" />
			<rect x="210.6" y="111.7" class="st2" width="25.8" height="25.8" />
			<rect x="210.6" y="195.5" class="st1" width="25.8" height="25.8" />
			<rect x="210.6" y="223.4" class="st1" width="25.8" height="25.8" />
			<rect x="210.6" y="251.3" class="st1" width="25.8" height="25.8" />
			<rect x="210.6" y="335.1" class="st1" width="25.8" height="25.8" />
			<rect x="210.6" y="363" class="st1" width="25.8" height="25.8" />
			<rect x="210.6" y="390.9" class="st1" width="25.8" height="25.8" />
			<rect x="210.6" y="418.8" class="st1" width="25.8" height="25.8" />
			<rect x="210.6" y="446.7" class="st1" width="25.8" height="25.8" />
			<rect x="210.6" y="474.7" class="st1" width="25.8" height="25.8" />
			<rect x="210.6" y="530.5" class="st1" width="25.8" height="25.8" />
			<rect x="210.6" y="558.4" class="st1" width="25.8" height="25.8" />
			<rect x="210.6" y="586.4" class="st1" width="25.8" height="25.8" />
			<rect x="210.6" y="614.3" class="st1" width="25.8" height="25.8" />
			<rect x="210.6" y="642.2" class="st1" width="25.8" height="25.8" />
			<rect x="210.6" y="670.1" class="st1" width="25.8" height="25.8" />
			<rect x="210.6" y="726" class="st1" width="25.8" height="25.8" />
			<rect x="210.6" y="753.9" class="st1" width="25.8" height="25.8" />
			<rect x="210.6" y="781.8" class="st1" width="25.8" height="25.8" />
			<rect x="210.6" y="809.7" class="st2" width="25.8" height="25.8" />
			<rect x="210.6" y="837.6" class="st1" width="25.8" height="25.8" />
			<rect x="210.6" y="865.6" class="st3" width="25.8" height="25.8" />
			<rect x="210.6" y="921.4" class="st1" width="25.8" height="25.8" />
			<rect x="210.6" y="977.3" class="st1" width="25.8" height="25.8" />
			<rect x="210.6" y="1005.2" class="st1" width="25.8" height="25.8" />
		</g>
		<g>
			<rect x="180.5" y="0" class="st4" width="25.8" height="25.8" />
			<rect x="180.5" y="83.8" class="st1" width="25.8" height="25.8" />
			<rect x="180.5" y="111.7" class="st1" width="25.8" height="25.8" />
			<rect x="180.5" y="167.5" class="st1" width="25.8" height="25.8" />
			<rect x="180.5" y="195.5" class="st1" width="25.8" height="25.8" />
			<rect x="180.5" y="223.4" class="st1" width="25.8" height="25.8" />
			<rect x="180.5" y="251.3" class="st1" width="25.8" height="25.8" />
			<rect x="180.5" y="279.2" class="st1" width="25.8" height="25.8" />
			<rect x="180.5" y="335.1" class="st1" width="25.8" height="25.8" />
			<rect x="180.5" y="363" class="st1" width="25.8" height="25.8" />
			<rect x="180.5" y="390.9" class="st1" width="25.8" height="25.8" />
			<rect x="180.5" y="418.8" class="st1" width="25.8" height="25.8" />
			<rect x="180.5" y="446.7" class="st1" width="25.8" height="25.8" />
			<rect x="180.5" y="474.7" class="st1" width="25.8" height="25.8" />
			<rect x="180.5" y="502.6" class="st1" width="25.8" height="25.8" />
			<rect x="180.5" y="530.5" class="st1" width="25.8" height="25.8" />
			<rect x="180.5" y="586.4" class="st1" width="25.8" height="25.8" />
			<rect x="180.5" y="614.3" class="st1" width="25.8" height="25.8" />
			<rect x="180.5" y="642.2" class="st1" width="25.8" height="25.8" />
			<rect x="180.5" y="670.1" class="st1" width="25.8" height="25.8" />
			<rect x="180.5" y="726" class="st1" width="25.8" height="25.8" />
			<rect x="180.5" y="781.8" class="st1" width="25.8" height="25.8" />
			<rect x="180.5" y="809.7" class="st1" width="25.8" height="25.8" />
			<rect x="180.5" y="837.6" class="st1" width="25.8" height="25.8" />
			<rect x="180.5" y="865.6" class="st1" width="25.8" height="25.8" />
			<rect x="180.5" y="921.4" class="st1" width="25.8" height="25.8" />
			<rect x="180.5" y="977.3" class="st1" width="25.8" height="25.8" />
		</g>
		<g>
			<rect x="150.4" y="0" class="st1" width="25.8" height="25.8" />
			<rect x="150.4" y="55.8" class="st1" width="25.8" height="25.8" />
			<rect x="150.4" y="83.8" class="st1" width="25.8" height="25.8" />
			<rect x="150.4" y="111.7" class="st1" width="25.8" height="25.8" />
			<rect x="150.4" y="139.6" class="st1" width="25.8" height="25.8" />
			<rect x="150.4" y="167.5" class="st1" width="25.8" height="25.8" />
			<rect x="150.4" y="223.4" class="st4" width="25.8" height="25.8" />
			<rect x="150.4" y="251.3" class="st1" width="25.8" height="25.8" />
			<rect x="150.4" y="279.2" class="st1" width="25.8" height="25.8" />
			<rect x="150.4" y="335.1" class="st1" width="25.8" height="25.8" />
			<rect x="150.4" y="363" class="st1" width="25.8" height="25.8" />
			<rect x="150.4" y="446.7" class="st1" width="25.8" height="25.8" />
			<rect x="150.4" y="474.7" class="st1" width="25.8" height="25.8" />
			<rect x="150.4" y="502.6" class="st1" width="25.8" height="25.8" />
			<rect x="150.4" y="530.5" class="st1" width="25.8" height="25.8" />
			<rect x="150.4" y="614.3" class="st1" width="25.8" height="25.8" />
			<rect x="150.4" y="698" class="st1" width="25.8" height="25.8" />
			<rect x="150.4" y="726" class="st1" width="25.8" height="25.8" />
			<rect x="150.4" y="809.7" class="st1" width="25.8" height="25.8" />
			<rect x="150.4" y="921.4" class="st1" width="25.8" height="25.8" />
			<rect x="150.4" y="949.3" class="st1" width="25.8" height="25.8" />
			<rect x="150.4" y="977.3" class="st1" width="25.8" height="25.8" />
		</g>
		<g>
			<rect x="120.3" y="0" class="st1" width="25.8" height="25.8" />
			<rect x="120.3" y="55.8" class="st1" width="25.8" height="25.8" />
			<rect x="120.3" y="83.8" class="st1" width="25.8" height="25.8" />
			<rect x="120.3" y="111.7" class="st3" width="25.8" height="25.8" />
			<rect x="120.3" y="139.6" class="st1" width="25.8" height="25.8" />
			<rect x="120.3" y="223.4" class="st1" width="25.8" height="25.8" />
			<rect x="120.3" y="251.3" class="st1" width="25.8" height="25.8" />
			<rect x="120.3" y="279.2" class="st1" width="25.8" height="25.8" />
			<rect x="120.3" y="446.7" class="st1" width="25.8" height="25.8" />
			<rect x="120.3" y="474.7" class="st1" width="25.8" height="25.8" />
			<rect x="120.3" y="502.6" class="st1" width="25.8" height="25.8" />
			<rect x="120.3" y="530.5" class="st1" width="25.8" height="25.8" />
			<rect x="120.3" y="558.4" class="st1" width="25.8" height="25.8" />
			<rect x="120.3" y="586.4" class="st1" width="25.8" height="25.8" />
			<rect x="120.3" y="614.3" class="st1" width="25.8" height="25.8" />
			<rect x="120.3" y="642.2" class="st1" width="25.8" height="25.8" />
			<rect x="120.3" y="698" class="st1" width="25.8" height="25.8" />
			<rect x="120.3" y="726" class="st1" width="25.8" height="25.8" />
			<rect x="120.3" y="753.9" class="st1" width="25.8" height="25.8" />
			<rect x="120.3" y="809.7" class="st2" width="25.8" height="25.8" />
			<rect x="120.3" y="865.6" class="st1" width="25.8" height="25.8" />
			<rect x="120.3" y="893.5" class="st1" width="25.8" height="25.8" />
			<rect x="120.3" y="921.4" class="st1" width="25.8" height="25.8" />
			<rect x="120.3" y="949.3" class="st4" width="25.8" height="25.8" />
			<rect x="120.3" y="977.3" class="st1" width="25.8" height="25.8" />
		</g>
		<g>
			<rect x="90.2" y="55.8" class="st1" width="25.8" height="25.8" />
			<rect x="90.2" y="83.8" class="st1" width="25.8" height="25.8" />
			<rect x="90.2" y="111.7" class="st1" width="25.8" height="25.8" />
			<rect x="90.2" y="139.6" class="st1" width="25.8" height="25.8" />
			<rect x="90.2" y="195.5" class="st1" width="25.8" height="25.8" />
			<rect x="90.2" y="223.4" class="st1" width="25.8" height="25.8" />
			<rect x="90.2" y="251.3" class="st1" width="25.8" height="25.8" />
			<rect x="90.2" y="279.2" class="st1" width="25.8" height="25.8" />
			<rect x="90.2" y="307.1" class="st1" width="25.8" height="25.8" />
			<rect x="90.2" y="335.1" class="st1" width="25.8" height="25.8" />
			<rect x="90.2" y="363" class="st1" width="25.8" height="25.8" />
			<rect x="90.2" y="418.8" class="st1" width="25.8" height="25.8" />
			<rect x="90.2" y="446.7" class="st1" width="25.8" height="25.8" />
			<polyline class="st1" points="90.2,528.4 116,528.4 116,502.6 90.2,502.6 		" />
			<rect x="90.2" y="530.5" class="st1" width="25.8" height="25.8" />
			<rect x="90.2" y="558.4" class="st1" width="25.8" height="25.8" />
			<rect x="90.2" y="586.4" class="st1" width="25.8" height="25.8" />
			<rect x="90.2" y="642.2" class="st1" width="25.8" height="25.8" />
			<rect x="90.2" y="698" class="st1" width="25.8" height="25.8" />
			<rect x="90.2" y="726" class="st1" width="25.8" height="25.8" />
			<rect x="90.2" y="753.9" class="st1" width="25.8" height="25.8" />
			<rect x="90.2" y="781.8" class="st1" width="25.8" height="25.8" />
			<rect x="90.2" y="809.7" class="st1" width="25.8" height="25.8" />
			<rect x="90.2" y="865.6" class="st1" width="25.8" height="25.8" />
			<rect x="90.2" y="893.5" class="st1" width="25.8" height="25.8" />
			<rect x="90.2" y="921.4" class="st1" width="25.8" height="25.8" />
		</g>
		<g>
			<rect x="60.2" y="0" class="st1" width="25.8" height="25.8" />
			<rect x="60.2" y="27.9" class="st1" width="25.8" height="25.8" />
			<rect x="60.2" y="83.8" class="st4" width="25.8" height="25.8" />
			<rect x="60.2" y="111.7" class="st1" width="25.8" height="25.8" />
			<rect x="60.2" y="139.6" class="st1" width="25.8" height="25.8" />
			<rect x="60.2" y="195.5" class="st1" width="25.8" height="25.8" />
			<rect x="60.2" y="223.4" class="st1" width="25.8" height="25.8" />
			<rect x="60.2" y="251.3" class="st1" width="25.8" height="25.8" />
			<rect x="60.2" y="279.2" class="st1" width="25.8" height="25.8" />
			<rect x="60.2" y="307.1" class="st1" width="25.8" height="25.8" />
			<rect x="60.2" y="335.1" class="st1" width="25.8" height="25.8" />
			<rect x="60.2" y="418.8" class="st1" width="25.8" height="25.8" />
			<rect x="60.2" y="446.7" class="st1" width="25.8" height="25.8" />
			<rect x="60.2" y="530.5" class="st1" width="25.8" height="25.8" />
			<rect x="60.2" y="586.4" class="st1" width="25.8" height="25.8" />
			<rect x="60.2" y="642.2" class="st1" width="25.8" height="25.8" />
			<rect x="60.2" y="726" class="st1" width="25.8" height="25.8" />
			<rect x="60.2" y="753.9" class="st2" width="25.8" height="25.8" />
			<rect x="60.2" y="781.8" class="st1" width="25.8" height="25.8" />
			<rect x="60.2" y="809.7" class="st1" width="25.8" height="25.8" />
			<rect x="60.2" y="837.6" class="st1" width="25.8" height="25.8" />
			<rect x="60.2" y="865.6" class="st1" width="25.8" height="25.8" />
			<rect x="60.2" y="893.5" class="st1" width="25.8" height="25.8" />
			<rect x="60.2" y="921.4" class="st1" width="25.8" height="25.8" />
			<rect x="60.2" y="977.3" class="st1" width="25.8" height="25.8" />
			<rect x="60.2" y="1005.2" class="st1" width="25.8" height="25.8" />
		</g>
		<g>
			<rect x="30.1" y="0" class="st2" width="25.8" height="25.8" />
			<rect x="30.1" y="27.9" class="st1" width="25.8" height="25.8" />
			<rect x="30.1" y="83.8" class="st1" width="25.8" height="25.8" />
			<rect x="30.1" y="111.7" class="st1" width="25.8" height="25.8" />
			<rect x="30.1" y="167.5" class="st1" width="25.8" height="25.8" />
			<rect x="30.1" y="279.2" class="st1" width="25.8" height="25.8" />
			<rect x="30.1" y="307.1" class="st4" width="25.8" height="25.8" />
			<rect x="30.1" y="335.1" class="st1" width="25.8" height="25.8" />
			<rect x="30.1" y="363" class="st1" width="25.8" height="25.8" />
			<rect x="30.1" y="418.8" class="st1" width="25.8" height="25.8" />
			<rect x="30.1" y="446.7" class="st1" width="25.8" height="25.8" />
			<rect x="30.1" y="474.7" class="st1" width="25.8" height="25.8" />
			<rect x="30.1" y="530.5" class="st1" width="25.8" height="25.8" />
			<rect x="30.1" y="586.4" class="st1" width="25.8" height="25.8" />
			<rect x="30.1" y="642.2" class="st2" width="25.8" height="25.8" />
			<rect x="30.1" y="670.1" class="st1" width="25.8" height="25.8" />
			<rect x="30.1" y="726" class="st1" width="25.8" height="25.8" />
			<rect x="30.1" y="753.9" class="st1" width="25.8" height="25.8" />
			<rect x="30.1" y="781.8" class="st1" width="25.8" height="25.8" />
			<rect x="30.1" y="921.4" class="st1" width="25.8" height="25.8" />
			<rect x="30.1" y="949.3" class="st1" width="25.8" height="25.8" />
			<rect x="30.1" y="1005.2" class="st1" width="25.8" height="25.8" />
		</g>
		<g>
			<rect x="0" y="0" class="st1" width="25.8" height="25.8" />
			<rect x="0" y="83.8" class="st5" width="25.8" height="25.8" />
			<rect x="0" y="111.7" class="st1" width="25.8" height="25.8" />
			<rect x="0" y="195.5" class="st1" width="25.8" height="25.8" />
			<rect x="0" y="223.4" class="st1" width="25.8" height="25.8" />
			<rect x="0" y="279.2" class="st1" width="25.8" height="25.8" />
			<rect x="0" y="418.8" class="st1" width="25.8" height="25.8" />
			<rect x="0" y="446.7" class="st2" width="25.8" height="25.8" />
			<rect x="0" y="474.7" class="st1" width="25.8" height="25.8" />
			<rect x="0" y="530.5" class="st1" width="25.8" height="25.8" />
			<rect x="0" y="586.4" class="st1" width="25.8" height="25.8" />
			<rect x="0" y="642.2" class="st1" width="25.8" height="25.8" />
			<rect x="0" y="670.1" class="st1" width="25.8" height="25.8" />
			<rect x="0" y="726" class="st1" width="25.8" height="25.8" />
			<rect x="0" y="781.8" class="st1" width="25.8" height="25.8" />
			<rect x="0" y="865.6" class="st1" width="25.8" height="25.8" />
			<rect x="0" y="921.4" class="st3" width="25.8" height="25.8" />
			<rect x="0" y="949.3" class="st1" width="25.8" height="25.8" />
			<rect x="0" y="1005.2" class="st1" width="25.8" height="25.8" />
		</g>
	</g>
</svg>
